<svg width="720" height="753" viewBox="0 0 720 753" fill="none" xmlns="http://www.w3.org/2000/svg">
<path d="M820 0.432617L-32 492.643L185.981 870.433M830 0.432617L-22 492.643L195.981 870.433M840 0.432617L-12 492.643L205.981 870.433M850 0.432617L-2 492.643L215.981 870.433M860 0.432617L8 492.643L225.981 870.433M870 0.432617L18 492.643L235.981 870.433M880 0.432617L28 492.643L245.981 870.433M890 0.432617L38 492.643L255.981 870.433M900 0.432617L48 492.643L265.981 870.433M910 0.432617L58 492.643L275.981 870.433M920 0.432617L68 492.643L285.981 870.433M930 0.432617L78 492.643L295.981 870.433M940 0.432617L88 492.643L305.981 870.433M950 0.432617L98 492.643L315.981 870.433M960 0.432617L108 492.643L325.981 870.433M970 0.432617L118 492.643L335.981 870.433M980 0.432617L128 492.643L345.981 870.433M990 0.432617L138 492.643L355.981 870.433M1000 0.432617L148 492.643L365.981 870.433M1010 0.432617L158 492.643L375.981 870.433M1020 0.432617L168 492.643L385.981 870.433M1030 0.432617L178 492.643L395.981 870.433M1040 0.432617L188 492.643L405.981 870.433M1050 0.432617L198 492.643L415.981 870.433M1060 0.432617L208 492.643L425.981 870.433" stroke="#FFD8C2"/>
</svg>
