<svg width="24" height="24" viewBox="0 0 24 24" fill="none" xmlns="http://www.w3.org/2000/svg">
<path d="M12.1537 6.09012C13.5635 6.08927 14.928 6.57981 16.0056 7.47483L19.0239 4.64451C17.8652 3.59249 16.4735 2.82088 14.9592 2.39091C13.4448 1.96094 11.8495 1.88444 10.2999 2.16749C8.75031 2.45055 7.28903 3.08535 6.03205 4.02153C4.77507 4.95771 3.75698 6.1695 3.05859 7.56072L6.46136 10.1434C6.85821 8.96502 7.62151 7.93948 8.64315 7.21202C9.66478 6.48456 10.893 6.09206 12.1537 6.09012Z" fill="#D94F3D"/>
<path d="M6.15366 11.9978C6.15451 11.3674 6.25829 10.7412 6.46103 10.1432L3.05826 7.56055C2.36222 8.93931 2 10.4581 2 11.9978C2 13.5375 2.36222 15.0563 3.05826 16.4351L6.46103 13.8524C6.25829 13.2544 6.15451 12.6282 6.15366 11.9978Z" fill="#F2C042"/>
<path d="M21.8911 10.1797H12.1992V14.2698H17.6913C17.3646 15.4262 16.616 16.4233 15.5891 17.0701L18.9655 19.6332C21.1231 17.7263 22.3909 14.6256 21.8911 10.1797Z" fill="#5085ED"/>
<path d="M15.5883 17.0715C14.5449 17.6596 13.3553 17.9489 12.1537 17.9068C10.893 17.9048 9.66478 17.5123 8.64315 16.7849C7.62151 16.0574 6.85821 15.0319 6.46136 13.8535L3.05859 16.4362C3.89908 18.1045 5.19563 19.5088 6.8024 20.4912C8.40917 21.4736 10.2624 21.995 12.1537 21.9968C14.6424 22.0634 17.0682 21.2218 18.9648 19.6337L15.5883 17.0715Z" fill="#57A75C"/>
</svg>
