<svg width="72" height="72" viewBox="0 0 72 72" fill="none" xmlns="http://www.w3.org/2000/svg">
<path d="M28.0127 6.80669C32.6153 2.88442 39.3847 2.88442 43.9873 6.80669C45.9596 8.48747 48.4118 9.50323 50.9949 9.70937C57.0229 10.1904 61.8096 14.9771 62.2906 21.0051C62.4968 23.5882 63.5125 26.0404 65.1933 28.0127C69.1156 32.6153 69.1156 39.3847 65.1933 43.9873C63.5125 45.9596 62.4968 48.4118 62.2906 50.9949C61.8096 57.0229 57.0229 61.8096 50.9949 62.2906C48.4118 62.4968 45.9596 63.5125 43.9873 65.1933C39.3847 69.1156 32.6153 69.1156 28.0127 65.1933C26.0404 63.5125 23.5882 62.4968 21.0051 62.2906C14.9771 61.8096 10.1904 57.0229 9.70937 50.9949C9.50323 48.4118 8.48747 45.9596 6.80669 43.9873C2.88442 39.3847 2.88442 32.6153 6.80669 28.0127C8.48747 26.0404 9.50323 23.5882 9.70937 21.0051C10.1904 14.9771 14.9771 10.1904 21.0051 9.70937C23.5882 9.50323 26.0404 8.48747 28.0127 6.80669Z" fill="#00C950"/>
<path d="M23 36.062L31.6218 44L49 28" stroke="white" stroke-width="4" stroke-linecap="round" stroke-linejoin="round"/>
</svg>
