<svg fill="none" height="32" viewBox="0 0 32 32" width="32" xmlns="http://www.w3.org/2000/svg"><g stroke="#555"><path d="m21.6 14.8267v-2.348c0-1.4531-.59-2.84659-1.6402-3.87404-1.0502-1.02744-2.4746-1.60466-3.9598-1.60466s-2.9096.57722-3.9598 1.60466c-1.0502 1.02745-1.6402 2.42094-1.6402 3.87404v2.348c0 2.5828-2.4 3.2089-2.4 4.696 0 1.3305 3.12 2.348 8 2.348s8-1.0175 8-2.348c0-1.4871-2.4-2.1132-2.4-4.696z" stroke-linecap="round" stroke-linejoin="round" stroke-width="2"/><path d="m17.3887 23.9092c-.0799.0839-.1669.1626-.2627.2314-.325.2335-.7193.3603-1.125.3604-.4057 0-.8-.127-1.125-.3604-.0961-.069-.1846-.1472-.2647-.2314.4474.0181.9105.0283 1.3897.0283.4785 0 .9408-.0102 1.3877-.0283z" fill="#212121"/></g></svg>