<svg fill="none" height="32" viewBox="0 0 78 32" width="78" xmlns="http://www.w3.org/2000/svg"><rect fill="#ff6e05" height="12.0602" rx="1.00799" transform="matrix(-.867302 .497783 -.502221 -.864739 10.0957 16.252)" width="2.01599"/><rect fill="#ff6e05" height="12.0602" rx="1.00799" transform="matrix(-.867302 -.497781 .502222 -.864739 4.03711 16.9238)" width="2.01599"/><rect fill="#ff6e05" height="12.1138" rx="1.00352" transform="matrix(0 1 -1 0 22.5742 -1.6524)" width="2.00704" x="12.1133" y="10.4609"/><path d="m5.95193 16.4161c-.18584.3199-.59743.4296-.91932.2448-.32188-.1847-.43217-.5939-.24633-.9139l2.70584-4.659c.18584-.3199.59744-.4296.91932-.2448.32189.1847.43217.5939.24633.9139z" fill="#fff"/><path d="m5.95193 6.40493c-.18584-.31998-.59743-.42962-.91932-.24488-.32188.18475-.43217.59391-.24633.9139l2.70584 4.65895c.18584.32.59744.4297.91932.2449.32189-.1847.43217-.5939.24633-.9139z" fill="#fff"/><path d="m2.25076 16.4161c-.18584.3199-.59744.4296-.91932.2448-.32188-.1847-.43217-.5939-.24633-.9139l2.70584-4.659c.18584-.3199.59744-.4296.91932-.2448.32188.1847.43217.5939.24633.9139z" fill="#fff"/><path d="m2.25076 6.40493c-.18584-.31998-.59744-.42962-.91932-.24488-.32188.18475-.43217.59391-.24633.9139l2.70584 4.65895c.18584.32.59743.4297.91932.2449.32188-.1847.43217-.5939.24633-.9139z" fill="#fff"/><g fill="#000"><path d="m72.443 23.8481c-.911 0-1.7916-.1208-2.6419-.4227-.8503-.2717-1.5184-.6339-2.0042-1.1169v-3.9546c.668 1.2981 1.4576 2.2943 2.3079 2.9886.8502.7245 1.7005 1.0566 2.5812 1.0566.6073 0 1.1235-.151 1.5183-.5132.3948-.3321.6073-.7849.6073-1.3887 0-.483-.1822-.9056-.5466-1.2679-.3644-.3622-1.1235-.7848-2.3079-1.2678-1.579-.6038-2.6419-1.2377-3.1277-1.8415-.5163-.6038-.7592-1.3585-.7592-2.2641 0-1.2075.4555-2.2037 1.3665-3.049.911-.84521 2.0042-1.26784 3.31-1.26784.5466 0 1.0628.12075 1.6094.30188.5466.21136 1.0021.48296 1.3969.78486l1.6398-1.08674v5.19234c-.8806-1.2981-1.6701-2.2339-2.399-2.8377-.7288-.6037-1.4272-.9056-2.0953-.9056-.5466 0-.9717.1509-1.3058.4528-.334.3019-.4858.7245-.4858 1.2075 0 .4528.1518.8453.5162 1.1773.334.3321 1.0932.7245 2.2775 1.1774 1.6398.6641 2.7331 1.3282 3.2797 1.9622.5466.6641.8199 1.4188.8199 2.3244 0 1.2981-.5466 2.3848-1.6095 3.2603-1.0932.8754-2.399 1.2981-3.9477 1.2981z"/><path d="m52.9741 22.1888v-8.9054l-2.3686-1.8414 5.9519-2.20372v2.62632h.5466c.7895-.8151 1.5487-1.4188 2.2775-1.7811.7288-.36221 1.4576-.54334 2.2472-.54334 1.1843 0 2.1257.42263 2.8241 1.20754.6681.7849 1.0325 1.8716 1.0325 3.2301v8.211l1.8827 1.3585h-7.3488l1.8828-1.3585v-7.245c0-.966-.2733-1.6905-.7592-2.2339-.4859-.5132-1.1843-.7849-2.0953-.7849-.3948 0-.7896.0906-1.2147.2717s-.8503.4226-1.2754.7849v9.2072l1.8524 1.3585h-7.3185z"/><path d="m44.7201 15.637v-1.5094c0-1.0868-.334-1.8716-.9414-2.3245-.6073-.4226-1.5183-.5433-2.7026-.3018v3.1093h-3.7656c.4859-1.3886 1.488-2.566 2.9456-3.5621 1.4577-.9962 2.9153-1.50944 4.4336-1.50944 1.0325 0 1.8828.36226 2.5205 1.05654.6377.6944.9717 1.6302.9717 2.7773v6.43c0 .5132.0911.9056.3341 1.1773.2429.2717.5769.3925 1.0021.3925.2733 0 .5466-.0604.7895-.1812.2429-.1207.4555-.2716.6377-.5131 0 .9056-.334 1.6301-.9717 2.2339-.6377.6037-1.3969.8754-2.3079.8754-.6985 0-1.3058-.1811-1.7917-.5434-.5162-.3622-.8806-.8452-1.1235-1.5094h-.4555c-.6074.6642-1.2147 1.1774-1.8524 1.5094-.6377.3623-1.2754.5132-1.9435.5132-.8503 0-1.5791-.2717-2.1561-.8151-.6073-.5433-.8806-1.2075-.8806-2.0527 0-.8151.3037-1.5396.911-2.1736.6073-.6037 1.6094-1.2075 3.0063-1.7508zm0 5.1017v-4.0149l-1.3362.5735c-.9717.4227-1.6398.8453-2.0042 1.2075-.3644.3925-.5162.8755-.5162 1.4189 0 .5132.1518.9056.4859 1.2075.334.3018.7895.4226 1.3361.4226.3644 0 .6984-.0604 1.0628-.1811.3341-.1208.6681-.3321.9718-.634z"/><path d="m29.5262 23.5465c1.2002-.8522 1.9132-2.2329 1.9132-3.7048v-16.00785l-2.8242-1.78108 6.4075-2.05277v19.8663c0 1.458.7004 2.8271 1.8827 3.6802z"/><path d="m15.8929 30.6414v-17.358l-2.3382-1.8414 5.9215-2.20372v2.23392h.4859c.6377-.6038 1.3362-1.0868 2.065-1.4188.7288-.33211 1.4576-.51324 2.2168-.51324 1.7005 0 3.0974.63394 4.1906 1.84144 1.0932 1.2377 1.6398 2.7773 1.6398 4.6489 0 2.2037-.7592 4.0452-2.2471 5.5546-1.5184 1.5094-3.2797 2.2641-5.3143 2.2641-.5769 0-1.1235-.0302-1.6094-.151-.5162-.0905-1.0021-.2415-1.4273-.4226v7.3658l3.0064 1.3585h-8.442zm3.5833-18.0825v8.362c.243.5132.6074.9057 1.0933 1.2076.4858.3018 1.0628.4226 1.7005.4226 1.2147 0 2.2168-.4528 2.976-1.4188.7591-.9359 1.1539-2.2339 1.1539-3.8641 0-1.6905-.4555-3.0489-1.3361-4.0451-.8807-.9962-2.065-1.5094-3.5226-1.5094-.4251 0-.8199.0905-1.2147.2415-.3947.1811-.6681.3622-.8503.6037z"/></g></svg>